PathFileType	4	(X/Y/Z)	Patient4_TMGait_0pt3_02_left_25.trc.trc
DataRate	CameraRate	NumFrames	NumMarkers	Units	OrigDataRate	OrigDataStartFrame	OrigNumFrames
51.851851851852	51.851851851852	5	33	mm	51.851851851852	71	       141
Frame#	Time	Sacral			L.Shoulder			Chest			R.Shoulder			Neck			R.ASIS			L.ASIS			R.Thigh.Superior			R.Thigh.Lateral			R.Thigh.Inferior			R.Patella			L.Thigh.Superior			L.Thigh.Lateral			L.Thigh.Inferior			L.Patella			L.Shank.Superior			L.Shank.Lateral			L.Shank.Inferior			R.Shank.Superior			R.Shank.Lateral			R.Shank.Inferior			R.Heel			R.Midfoot.Superior			R.Midfoot.Lateral			R.Toe			L.Heel			L.Midfoot.Lateral			L.Midfoot.Superior			L.Toe			L.Elbow			L.Wrist			R.Elbow			R.Wrist			
		X1	Y1	Z1	X2	Y2	Z2	X3	Y3	Z3	X4	Y4	Z4	X5	Y5	Z5	X6	Y6	Z6	X7	Y7	Z7	X8	Y8	Z8	X9	Y9	Z9	X10	Y10	Z10	X11	Y11	Z11	X12	Y12	Z12	X13	Y13	Z13	X14	Y14	Z14	X15	Y15	Z15	X16	Y16	Z16	X17	Y17	Z17	X18	Y18	Z18	X19	Y19	Z19	X20	Y20	Z20	X21	Y21	Z21	X22	Y22	Z22	X23	Y23	Z23	X24	Y24	Z24	X25	Y25	Z25	X26	Y26	Z26	X27	Y27	Z27	X28	Y28	Z28	X29	Y29	Z29	X30	Y30	Z30	X31	Y31	Z31	X32	Y32	Z32	X33	Y33	Z33	

71	50.370000000000	751.927797284862	999.927784396149	385.352776625684	972.739462155349	1432.510220926186	248.361261310072	1026.924460599724	1364.123576312274	430.081735047270	900.642488514969	1435.470689632068	576.301687042554	911.783782820295	1493.794170384640	398.380750767203	954.854186494798	944.150891708431	551.794264791780	996.682611650147	958.805638514945	279.074815970239	1034.131946794966	767.127040600875	529.525071537212	980.805734094094	646.000023762421	593.354165505174	1073.488786843641	607.197141881769	519.991029111389	1101.175695160721	521.836722165740	538.311295020082	1016.853145386554	734.743309848655	321.419550496822	928.691315848524	622.194875341797	247.370458711070	989.570970851890	540.934743023991	327.731865909930	980.694271464215	470.363604063724	337.024050002969	942.759699966963	400.234130103849	325.783433655699	844.410609447277	298.241889786637	265.854058188475	865.775782169586	183.634616125688	344.063616727192	1078.427141389959	431.079148642180	549.439685176588	1013.176162683572	323.888310795868	614.643706196547	1074.973101099915	230.335659964771	566.009299726296	968.375056623318	42.820796407731	543.473014890086	1130.124305699632	119.212599347047	578.836252442913	1055.930020902624	40.060803909259	612.821691630960	1257.411984737877	88.157287841955	600.164517691073	715.856868005393	39.269111472774	374.253469956228	794.800713182763	35.475597539694	299.114354023175	877.623736906798	95.040319056740	332.316716818949	1006.682614958953	41.010690099902	310.844055701378	1132.130371173885	1146.892668818054	98.541863416509	1380.619466980377	1070.244218833130	132.697512891526	732.964536892302	1127.684143667843	660.109938573047	702.731166003270	868.258210897333	671.113277585997	
72	50.389285714286	752.978678014010	999.300107012983	387.454396422728	973.731118519599	1432.403800625751	252.422021723620	1026.605160692605	1364.210181198618	434.482094597942	899.230547896352	1435.702911054460	579.661300212107	911.515205848993	1493.545036030952	401.931302589623	954.766169098886	943.527872081783	555.211516759078	998.325584834804	958.828558125876	282.759992542840	1033.163469105235	765.271782146391	533.425401317396	977.841331197812	644.080247044021	595.746136341392	1071.047236386663	605.469680234450	523.064044936811	1097.333766855890	521.026898822040	540.179910431567	1015.306010694210	733.618908440384	324.023695938852	925.516378875665	622.571253311134	248.614556364445	984.498980146311	540.136612495832	328.753916562554	974.358224436735	469.921124104602	337.759081616141	936.861911920454	400.257408663511	326.190847012667	838.479972857285	298.381246233762	266.019983745793	859.858215929312	183.679822896554	344.197583355210	1076.966294226869	429.982478726173	551.101156765341	1014.156802955155	321.073407606149	615.956169036798	1078.036687364468	229.086340987899	566.742470712869	975.109254987630	41.000401659990	543.788257848338	1135.941941489082	118.530277229557	578.747696159597	1062.871069068087	38.478622273354	612.617904287010	1263.607799944584	88.583906768050	599.094135802339	709.982595695630	39.177784664571	374.213088383815	788.915001192066	35.391886392107	299.077745835667	871.741222278563	95.040335579995	332.281095357772	1000.776532961849	41.074752083981	310.881616283194	1138.793050029721	1151.444577952510	102.357793974108	1390.252733997543	1086.399854424234	137.496396488263	727.662494241614	1130.459647142855	660.958572621352	695.465137489786	871.159318367050	670.562401107560	
73	50.408571428571	754.280457249243	998.195794138290	390.037073670353	974.390618675538	1431.919597202138	256.684496569487	1026.332288659730	1363.972658695951	438.993552610039	898.083872025287	1435.466717554017	583.391871119090	911.199759672109	1492.909104146932	405.776501686279	955.151111200038	942.501161751783	558.755095980015	1000.146755282157	958.518131602645	286.569879804086	1032.892930250688	763.074206849041	537.303768564147	975.574496102706	641.807835970885	598.036739972071	1069.334211664759	603.415765567582	526.033983867797	1094.025386050258	519.446092311930	541.991869886436	1014.257154381939	732.285964194930	326.600713343322	922.775826540188	622.707507948391	250.085276638459	980.006435651963	539.165988043224	329.907021638183	968.652668614429	469.276893097240	338.675705756178	931.453802510458	400.067256142522	326.791135487469	832.875733748175	298.484607458626	266.328188248343	854.106523480002	183.627015344227	344.416244671135	1075.255641998247	428.192546101095	552.638852994574	1013.892128249277	318.301137901485	617.015103392280	1078.867845330117	227.416680951837	567.217286660092	977.800204226739	40.190537517575	543.722856911046	1138.337712715809	117.251697442274	578.506505205120	1065.497020825464	37.399318777410	612.365604640294	1265.839151472095	87.164961798157	598.361778527584	704.112456282555	39.071349222445	374.185974567447	783.035506357581	35.307122790488	299.053170833481	865.865338910917	95.036261517172	332.272018050556	994.872296004530	41.124705242721	310.918886614302	1144.672578485413	1155.312798995104	106.499533192272	1398.509763656825	1101.469912065577	142.320442136084	724.182858502068	1131.868306222583	662.281641700431	690.696245309410	872.566200193464	670.478506581567	
74	50.427857142857	755.825959417446	996.764467803013	393.040418851359	974.806611775653	1431.179324840742	261.163472889939	1026.150450155381	1363.499240062683	443.642984652996	897.205670147191	1434.838207147371	587.499413090164	910.878842942974	1491.987343133554	409.933426544660	955.984389959790	941.201453414887	562.419869034230	1002.147318523956	957.962959696936	290.503693182182	1033.297511986456	760.700522877232	541.082230240802	974.069007260662	639.362277531091	600.227154170243	1068.360082735336	601.197251147864	528.848827293139	1091.394827488334	517.321014521183	543.723486455733	1013.674224413120	730.786014978900	329.170314932383	920.425877316098	622.654729874388	251.805466994962	976.046344735434	538.064993357858	331.230861578576	963.544149153224	468.468332172266	339.806794733888	926.491689967409	399.709781773772	327.604296444795	827.558443694857	298.594237714065	266.797579259475	848.505581792534	183.508907484175	344.725650780301	1073.524431783695	425.899475901232	554.026394389246	1012.746275313066	315.599594079431	617.851645481430	1077.957933537561	225.370557747145	567.434495617460	977.128576640539	40.037017291040	543.337213536894	1137.946613236198	115.436767888252	578.105494847753	1064.557334128133	36.669448144952	612.097514423930	1264.890839155211	84.207807843003	597.929861990198	698.248399102971	38.966591521959	374.169641955570	777.167013149406	35.234657178507	299.045025849950	860.003049939137	95.039252189390	332.288957228351	988.974396165488	41.153847884381	310.952984667103	1149.744761710359	1158.538489590581	110.898071255485	1405.436144989977	1115.376168154570	147.113905912721	722.411965285447	1131.981286177662	664.128853136171	688.213003967148	872.579363149306	670.969604104845	
75	50.447142857143	757.587657117600	995.180607892491	396.402142632339	975.090771673651	1430.317596240693	265.865660815896	1026.108306440448	1362.888357701942	448.450081397141	896.604230040700	1433.925406390761	591.968829492888	910.604792424339	1490.900014046993	414.405133428694	957.220859807309	939.779895535599	566.210837434237	1004.300571353480	957.263928332416	294.563290443960	1034.315766381528	758.336719121576	544.694094831851	973.365574159805	636.935799037179	602.341608536406	1068.093779047798	598.986909284893	531.462108631672	1089.536276996292	514.902103008549	545.351630827411	1013.481518274405	729.177894727731	331.768304537643	918.401210415992	622.477456252640	253.790923445369	972.552188893663	536.889126564468	332.760559124757	958.981360528232	467.541683210353	341.172495504973	921.923042807828	399.243243475703	328.639175178107	822.479845717056	298.758992507668	267.442258452749	843.037922718182	183.366770516509	345.127111283276	1071.977688256260	423.326675452398	555.250754619826	1011.108349949063	313.037593981768	618.524078807510	1075.832552538836	223.066742321835	567.417375860175	973.889423720057	40.253257948814	542.722672535531	1135.466563510046	113.236519423191	577.550861492228	1060.924302024727	36.187707008271	611.838857253756	1261.603490302760	80.158795711057	597.712114048498	692.392367733599	38.891395468529	374.161656692766	771.315346015712	35.193449800541	299.057443765558	854.164678825580	95.062717224573	332.330330847591	983.089269560463	41.153753521334	310.980951684565	1154.023858953407	1161.194962063717	115.475663599380	1411.113913290385	1128.064111289915	151.826828145768	722.181219531818	1130.964187048184	666.532189646914	687.794813362389	871.393951037432	672.127560159022	
